<svg width="256" height="256" viewBox="0 0 256 256" xmlns="http://www.w3.org/2000/svg" aria-hidden="true" role="img">
  <title>Happening</title>
  <defs>
    <!-- Brand gradient: Emerald → Indigo -->
    <linearGradient id="bg" x1="0" y1="0" x2="1" y2="1">
      <stop offset="0" stop-color="#10B981"/>
      <stop offset="1" stop-color="#6366F1"/>
    </linearGradient>
    <linearGradient id="accent" x1="0" y1="0" x2="1" y2="1">
      <stop offset="0" stop-color="#60A5FA"/>
      <stop offset="1" stop-color="#34D399"/>
    </linearGradient>
    <filter id="shadow" x="-20%" y="-20%" width="140%" height="140%">
      <feDropShadow dx="0" dy="6" stdDeviation="8" flood-color="#0f172a" flood-opacity="0.25"/>
    </filter>
  </defs>

  <!-- Calendar tile container -->
  <rect x="20" y="22" width="216" height="216" rx="44" fill="url(#bg)" filter="url(#shadow)"/>
  <!-- Calendar header strip -->
  <rect x="36" y="38" width="184" height="28" rx="10" fill="rgba(255,255,255,0.28)"/>
  <!-- Binding rings -->
  <circle cx="76" cy="52" r="6" fill="#ffffff"/>
  <circle cx="180" cy="52" r="6" fill="#ffffff"/>

  <!-- H monogram (event-friendly, geometric) -->
  <g fill="#ffffff">
    <rect x="72" y="88" width="30" height="100" rx="8"/>
    <rect x="154" y="88" width="30" height="100" rx="8"/>
    <rect x="98" y="128" width="60" height="20" rx="10"/>
  </g>

  <!-- Event check/ribbon in corner -->
  <path d="M208 176c0-2.2-1.8-4-4-4h-40c-2.2 0-4 1.8-4 4v32c0 2.2 1.8 4 4 4h24.5l10.6 10.6c1.6 1.6 4.2 1.6 5.8 0L216 212.5V176z" fill="url(#accent)" opacity="0.95"/>
  <path d="M170 194l10 10 18-18" fill="none" stroke="#0f172a" stroke-width="6" stroke-linecap="round" stroke-linejoin="round" opacity="0.55"/>

</svg>

